<svg alt="Barebones theme logo" role="presentation" viewBox="0 0 410 296" xmlns="http://www.w3.org/2000/svg" xmlns:serif="http://www.serif.com/" fill-rule="evenodd" clip-rule="evenodd" stroke-linejoin="round" stroke-miterlimit="1.414"><g serif:id="Plan de travail1" transform="translate(-51.326 -108.018)"><path fill="none" d="M51.326 108.018h409.345v295.964H51.326z"/><clipPath id="a"><path d="M51.326 108.018h409.345v295.964H51.326z"/></clipPath><g fill-rule="nonzero" clip-path="url(#a)"><path d="M238.259 318.49c4.539 3.46 10.667 3.266 14.905-.476l.712-.629a2.692 2.692 0 0 1 3.557 0l.713.63c2.218 1.957 4.952 2.944 7.706 2.944 2.51 0 5.035-.82 7.199-2.47 4.493-3.427 5.857-9.106 3.398-14.122a13.33 13.33 0 0 0-.423-.794l-9.386-16.257c-2.293-3.973-6.399-6.344-10.985-6.344-4.587 0-8.693 2.371-10.986 6.344l-9.389 16.262c-.149.258-.288.52-.416.78-2.462 5.025-1.098 10.705 3.395 14.131zm4.676-10.177c.041-.084.085-.167.13-.246l9.386-16.257c.964-1.669 2.561-1.849 3.204-1.849.642 0 2.239.18 3.202 1.85l9.383 16.252c.047.08.09.16.135.251.757 1.544-.16 2.561-.774 3.028-.433.331-1.962 1.3-3.505-.063l-.714-.63a11.652 11.652 0 0 0-7.727-2.918c-2.763 0-5.525.973-7.728 2.917l-.713.63c-1.544 1.363-3.074.396-3.505.064-.614-.468-1.532-1.484-.774-3.029zM350.751 203.058v-8.987c-18.207 0-33.021-14.813-33.021-33.02h-8.987c0 23.162 18.845 42.007 42.008 42.007zM255.322 230.773c4.083 0 8.171-1.094 11.853-3.288l14.119-8.417-4.603-7.72-14.119 8.418c-4.653 2.773-10.371 2.671-14.92-.268l-12.487-8.065-4.876 7.55 12.487 8.064c3.841 2.481 8.19 3.726 12.546 3.726z"/><path d="M446.836 370.773c-6.189-1.655-14.751-3.206-25.489-4.62l10.004-35.33a17.842 17.842 0 0 0 9.174-2.276 17.886 17.886 0 0 0 8.554-10.819c2.703-9.535-2.857-19.497-12.408-22.21a18.008 18.008 0 0 0-10.674.284 17.93 17.93 0 0 0-8.919-5.828 17.853 17.853 0 0 0-13.67 1.603 17.874 17.874 0 0 0-8.534 10.798 17.835 17.835 0 0 0 1.596 13.676 17.879 17.879 0 0 0 6.633 6.771l-19.248 67.953c-19.844 1.525-42.402 2.663-67.135 3.384 3.017-12.028 5.859-22.085 8.659-30.634 6.671-20.426 11.942-28.355 15.189-31.409a124.288 124.288 0 0 0 11.19-12.012 19.379 19.379 0 0 0 3.129 2.448 19.176 19.176 0 0 0 10.159 2.903c6.46 0 12.782-3.234 16.44-9.112a19.317 19.317 0 0 0 2.865-11.394 19.244 19.244 0 0 0 8.941-7.61c5.624-9.039 2.842-20.97-6.208-26.604a19.226 19.226 0 0 0-10.196-2.899 124.275 124.275 0 0 0 2.769-26.089c0-68.376-55.629-124.005-124.005-124.005-32.45 0-63.776 13.25-87.083 35.756l-32.229-20.034a19.17 19.17 0 0 0 .472-10.49 19.207 19.207 0 0 0-8.62-12.018 19.177 19.177 0 0 0-14.59-2.406 19.218 19.218 0 0 0-12.021 8.616 19.291 19.291 0 0 0-2.875 11.177 19.207 19.207 0 0 0-6.513 4.726 19.32 19.32 0 0 0-2.421 3.104c-5.619 9.048-2.829 20.983 6.217 26.605 7.728 4.808 17.57 3.473 23.784-2.667l29.313 18.218c-11.414 19.135-17.431 40.95-17.431 63.417 0 24.274 7.218 47.927 20.333 67.976l-.025.02a3.608 3.608 0 0 1-.26-.39l.13.216c.226.354.453.698.695 1.042l.019.03.153.227c.138.196.288.38.429.572a123.573 123.573 0 0 0 18.168 21.2c3.231 2.996 8.462 10.777 15.035 30.818 2.837 8.645 5.713 18.951 8.567 30.664-32.655-.965-61.642-2.66-84.807-4.957l26.757-24.605a19.154 19.154 0 0 0 9.956 3.268 19.2 19.2 0 0 0 13.91-5.086c7.834-7.203 8.35-19.443 1.141-27.297a19.366 19.366 0 0 0-10.204-5.802 19.272 19.272 0 0 0-4.942-10.655 19.18 19.18 0 0 0-13.405-6.222 19.193 19.193 0 0 0-13.879 5.08 19.138 19.138 0 0 0-6.231 13.405 19.224 19.224 0 0 0 2.423 10.225l-27.262 25.066c-30.543 4.27-36.704 8.74-36.704 14.56 0 5.976 7.24 8.84 18.117 11.293.264.065.535.13.729.167 7.218 1.598 16.742 3.086 28.227 4.416l.502.064c26.012 3 60.878 5.148 100.857 6.217l1.662.05c9.276.241 18.943.423 28.733.54a2209.787 2209.787 0 0 0 51.359.007c9.541-.11 19.371-.297 29.277-.55l.242-.008c.139-.003.277-.005.417-.01l1.291-.036c27.446-.745 52.311-1.992 73.899-3.706 8.089-.639 15.596-1.333 22.223-2.053l.366-.035c15.203-1.644 27.114-3.51 35.4-5.547 8.333-2.048 16.044-4.774 16.044-10.81.003-5.763-7.157-8.454-14.161-10.327zM70.175 383.26c-3.422-.827-5.709-1.572-7.218-2.17 2.26-.892 6.296-2.112 13.359-3.478l-6.141 5.648zm28.048 4.61c-6.417-.765-12.147-1.572-17.15-2.422l46.855-43.082-3.037-3.308a10.285 10.285 0 0 1-2.717-7.433 10.22 10.22 0 0 1 3.33-7.16 10.28 10.28 0 0 1 7.426-2.72 10.255 10.255 0 0 1 7.167 3.326 10.3 10.3 0 0 1 2.66 8.145 10.31 10.31 0 0 1-3.273 6.441l6.077 6.621a19.281 19.281 0 0 0 5.072-7.634 10.335 10.335 0 0 1 4.612 2.887c3.852 4.195 3.577 10.742-.612 14.594a10.278 10.278 0 0 1-7.444 2.723 10.221 10.221 0 0 1-7.142-3.323l-3.042-3.318-38.782 35.663zm284.118-109.5c4.838 3.01 6.328 9.39 3.319 14.225a10.284 10.284 0 0 1-7.149 4.74 10.145 10.145 0 0 1-6.402-1.039 7.375 7.375 0 0 1-.618-.354l-4.844 7.57a19.12 19.12 0 0 0 8.757 2.891 10.337 10.337 0 0 1-1.55 5.195c-3.01 4.835-9.393 6.322-14.218 3.323a10.386 10.386 0 0 1-4.433-5.757 10.352 10.352 0 0 1 1.103-8.48l2.377-3.832-82.042-50.482c1.516-3.584 4.144-6.587 7.634-8.604l2.013-1.162 79.473 48.882 2.36-3.796a10.224 10.224 0 0 1 6.646-4.649 10.237 10.237 0 0 1 7.574 1.33zM115.649 117.313a10.237 10.237 0 0 1 7.79 1.285 10.268 10.268 0 0 1 4.609 6.423 10.233 10.233 0 0 1-1.283 7.787l-2.378 3.823 69.52 43.214-.023.035c-.158.226-.327.444-.49.667a34.15 34.15 0 0 1-.729.961 37.647 37.647 0 0 1-1.375 1.62c-.144.16-.286.32-.433.476a34.4 34.4 0 0 1-1.343 1.358l-.041.04c-.528.5-1.072.982-1.631 1.447l-.013.01a32.8 32.8 0 0 1-1.647 1.28l-.171.123c-.542.391-1.096.766-1.661 1.123l-.06.04-66.612-41.396-.261.42-.082-.05-2.376 3.817c-.32.514-.686.982-1.076 1.42-3.315 3.361-8.631 4.12-12.8 1.526-4.837-3.007-6.33-9.387-3.328-14.222.233-.375.493-.723.764-1.057a10.378 10.378 0 0 1 6.071-3.306l-.026-.308c2.471-.48 5.12-.077 7.422 1.353l4.744-7.633a19.215 19.215 0 0 0-9.021-2.872 10.284 10.284 0 0 1 1.519-4.802 10.255 10.255 0 0 1 6.421-4.602zm44.873 189.02c-12.811-18.919-19.879-41.45-19.879-64.587 0-20.786 5.552-40.962 16.08-58.672l16.617 10.328a33.077 33.077 0 0 1-6.562.667v8.987c5.795 0 11.369-1.15 16.602-3.415l.083.052 2.257-1.14c7.784-3.932 14.292-10.365 18.328-18.115l2.048-3.932-.224-.12a42.117 42.117 0 0 0 2.912-15.335h-8.987a32.69 32.69 0 0 1-1.799 10.74l-21.582-13.416c21.477-20.613 49.255-31.646 79.236-31.646 63.421 0 115.018 51.597 115.018 115.018 0 9.784-1.24 19.46-3.658 28.8a18.952 18.952 0 0 0-3.722 2.87l-68.154-41.92 16.14-9.317c5.703-3.295 12.514-3.297 18.219-.005 5.71 3.294 9.119 9.197 9.119 15.79v16.095h8.986v-16.096c0-9.842-5.089-18.654-13.613-23.573-8.521-4.917-18.692-4.913-27.206.008l-26.999 15.585a28.028 28.028 0 0 0-2.531 1.655l-14.678 8.787c-4.653 2.774-10.371 2.671-14.973-.3l-13.575-8.504a28.149 28.149 0 0 0-2.498-1.64l-26.995-15.585c-8.52-4.919-18.694-4.92-27.214 0-8.521 4.92-13.607 13.73-13.607 23.57v31.17c0 9.837 5.087 18.647 13.607 23.567 4.261 2.46 8.934 3.69 13.607 3.69s9.348-1.23 13.607-3.69l26.995-15.586c8.521-4.919 13.607-13.729 13.607-23.568 0-1.608-.149-3.186-.414-4.727 3.335 1.73 6.962 2.611 10.6 2.611 3.904 0 7.812-1.013 11.369-3.02-2.18 11.431 2.974 22.86 13.095 28.708l26.993 15.582c4.101 2.372 8.728 3.644 13.38 3.678l.065-8.988c-3.142-.02-6.15-.854-8.948-2.47l-26.995-15.584c-5.484-3.169-8.196-8.212-8.896-13.19l71.363 43.912a19.356 19.356 0 0 0-.349 10.924c-6.584 5.25-16.726 7.691-26.494 2.05l-33.272-19.207-4.491 7.784 32.092 18.525V334.5a43.116 43.116 0 0 0-19.025-4.416h-78.144a43.094 43.094 0 0 0-19.574 4.69v-15.485l31.396-18.123-4.492-7.783-33.271 19.205c-11.808 6.814-24.393 1.923-30.6-6.255zm43.159-29.324a17.592 17.592 0 0 0 6.272 2.185l-9.916 5.725c-5.707 3.295-12.521 3.295-18.227 0-5.706-3.295-9.114-9.196-9.114-15.785v-31.17c0-6.59 3.407-12.49 9.113-15.786 2.854-1.647 5.983-2.47 9.114-2.47 3.131 0 6.261.823 9.114 2.47l9.916 5.725a17.566 17.566 0 0 0-6.272 2.185c-5.468 3.157-8.733 8.811-8.733 15.125v16.671c.001 6.314 3.266 11.968 8.733 15.125zm4.494-7.782a8.395 8.395 0 0 1-4.239-7.344v-16.67c0-3.066 1.584-5.812 4.239-7.344a8.464 8.464 0 0 1 4.239-1.149c1.456 0 2.913.383 4.24 1.15l14.438 8.335a8.393 8.393 0 0 1 4.239 7.343 8.393 8.393 0 0 1-4.239 7.342l-14.438 8.337a8.4 8.4 0 0 1-8.479 0zm-3.97 125.148c-3.096-12.923-6.232-24.27-9.332-33.719-5.838-17.802-11.55-29.122-17.461-34.605-.521-.484-1.032-.979-1.543-1.472 1.138.122 2.283.192 3.432.192 3.075 0 6.17-.457 9.199-1.357v16.773l1.406 1.33c3.396 3.211 10.309 14.377 19.127 52.975-1.624-.036-3.225-.076-4.828-.117zm77.528.495c-15.658.186-33.443.197-51.146-.009-4.131-.05-8.231-.112-12.299-.185-5.547-24.734-11.018-41.9-16.578-51.953a34.125 34.125 0 0 1 15.351-3.655h78.144a34.119 34.119 0 0 1 14.77 3.366c-5.399 9.863-10.772 26.686-16.781 52.266-3.851.066-7.682.125-11.461.17zm25.662-.465c-1.646.04-3.29.078-4.932.115 3.474-14.709 11.252-45.645 19.368-53.418l1.386-1.326V324.05a32.474 32.474 0 0 0 8.396 1.105 32.5 32.5 0 0 0 3.418-.184c-.208.197-.412.4-.621.596-5.915 5.564-11.664 17.068-17.574 35.164-3.054 9.321-6.146 20.355-9.441 33.675zm98.186-5.566a736.18 736.18 0 0 1-12.167 1.153l20.631-72.82-4.321-1.229a8.967 8.967 0 0 1-5.409-4.277 8.91 8.91 0 0 1-.797-6.836 8.95 8.95 0 0 1 4.272-5.409 8.93 8.93 0 0 1 6.84-.8 8.968 8.968 0 0 1 5.69 4.832 8.98 8.98 0 0 1 .51 6.276l8.646 2.456c.758-2.667.876-5.45.386-8.138a8.989 8.989 0 0 1 4.364.116c4.774 1.356 7.559 6.342 6.206 11.113a8.959 8.959 0 0 1-4.283 5.42 8.902 8.902 0 0 1-6.817.792l-4.329-1.233-19.422 68.584zm9.645-1.075l3.645-12.87c18.799 2.415 27.18 4.751 30.858 6.21-3.906 1.547-13.119 4.082-34.503 6.66z"/></g></g></svg>
