<svg alt="Barebones Bootstrap theme logo" role="presentation" viewBox="0 0 256 256" xmlns="http://www.w3.org/2000/svg" fill-rule="evenodd" clip-rule="evenodd" stroke-linejoin="round" stroke-miterlimit="1.414"><path d="M0 222.991C0 241.223 14.779 256 33.009 256h189.982C241.223 256 256 241.221 256 222.991V33.009C256 14.777 241.221 0 222.991 0H33.009C14.777 0 0 14.779 0 33.009v189.982z" fill="#563d7c" fill-rule="nonzero"/><path d="M235.71 192.879c-3.5-.936-8.34-1.813-14.411-2.612l5.656-19.975c1.8.045 3.576-.39 5.186-1.287a10.112 10.112 0 0 0 4.836-6.116c1.529-5.391-1.615-11.023-7.015-12.558a10.181 10.181 0 0 0-6.034.161 10.137 10.137 0 0 0-5.043-3.295 10.094 10.094 0 0 0-7.729.907 10.105 10.105 0 0 0-4.824 6.105 10.083 10.083 0 0 0 .902 7.732 10.108 10.108 0 0 0 3.75 3.828l-10.882 38.418c-11.22.862-23.973 1.506-37.956 1.913 1.705-6.8 3.312-12.486 4.895-17.319 3.772-11.548 6.752-16.031 8.588-17.758a70.269 70.269 0 0 0 6.326-6.791c.54.515 1.127.984 1.77 1.384a10.841 10.841 0 0 0 5.743 1.641c3.652 0 7.226-1.828 9.294-5.151a10.921 10.921 0 0 0 1.62-6.442 10.88 10.88 0 0 0 5.055-4.303c3.18-5.11 1.607-11.856-3.51-15.04a10.87 10.87 0 0 0-5.764-1.64 70.261 70.261 0 0 0 1.565-14.75c0-38.657-31.45-70.108-70.108-70.108-18.347 0-36.057 7.49-49.234 20.215L60.164 58.711c.635-1.895.734-3.935.267-5.93a10.859 10.859 0 0 0-4.873-6.795 10.842 10.842 0 0 0-8.25-1.36 10.865 10.865 0 0 0-6.795 4.871 10.907 10.907 0 0 0-1.626 6.32 10.859 10.859 0 0 0-3.682 2.671 10.923 10.923 0 0 0-1.369 1.755c-3.177 5.115-1.6 11.863 3.515 15.042 4.37 2.718 9.934 1.963 13.447-1.508l16.572 10.3c-6.453 10.818-9.855 23.151-9.855 35.854 0 13.724 4.081 27.096 11.496 38.431l-.014.011a2.04 2.04 0 0 1-.147-.22l.074.122c.127.2.256.395.392.59l.011.016.087.129c.078.11.163.215.242.323a69.864 69.864 0 0 0 10.272 11.985c1.827 1.695 4.784 6.094 8.5 17.425 1.604 4.887 3.23 10.714 4.844 17.336-18.462-.546-34.85-1.504-47.948-2.803l15.128-13.91a10.83 10.83 0 0 0 5.629 1.847 10.855 10.855 0 0 0 7.864-2.875c4.43-4.073 4.721-10.993.645-15.433a10.949 10.949 0 0 0-5.769-3.28 10.896 10.896 0 0 0-2.794-6.024 10.843 10.843 0 0 0-7.579-3.518 10.851 10.851 0 0 0-7.846 2.871 10.82 10.82 0 0 0-3.523 7.58 10.869 10.869 0 0 0 1.37 5.78l-15.413 14.172c-17.269 2.414-20.752 4.94-20.752 8.232 0 3.379 4.093 4.997 10.243 6.385.15.036.302.073.412.094 4.081.903 9.466 1.745 15.959 2.497l.284.036c14.706 1.695 34.418 2.91 57.021 3.515l.94.028c5.244.136 10.71.24 16.245.305a1249.347 1249.347 0 0 0 29.036.004c5.395-.062 10.952-.168 16.553-.311l.137-.004.235-.006.73-.02c15.517-.421 29.575-1.126 41.78-2.095 4.574-.362 8.818-.754 12.565-1.161l.207-.02c8.595-.93 15.33-1.985 20.014-3.136 4.711-1.158 9.07-2.7 9.07-6.112.002-3.258-4.046-4.78-8.006-5.838zm-212.953 7.06c-1.935-.468-3.228-.89-4.081-1.227 1.277-.505 3.56-1.194 7.552-1.967l-3.471 3.194zm15.857 2.606c-3.628-.433-6.868-.889-9.696-1.37l26.49-24.357-1.717-1.87a5.815 5.815 0 0 1-1.536-4.202 5.779 5.779 0 0 1 1.883-4.049 5.812 5.812 0 0 1 4.198-1.538 5.798 5.798 0 0 1 4.052 1.881 5.824 5.824 0 0 1 1.504 4.605 5.83 5.83 0 0 1-1.85 3.642l3.436 3.743a10.9 10.9 0 0 0 2.867-4.316 5.843 5.843 0 0 1 2.608 1.632 5.85 5.85 0 0 1-.346 8.251 5.811 5.811 0 0 1-4.21 1.54 5.779 5.779 0 0 1-4.037-1.879l-1.72-1.876-21.926 20.163zm160.632-61.908a5.845 5.845 0 0 1 1.876 8.042 5.814 5.814 0 0 1-4.042 2.68 5.736 5.736 0 0 1-3.968-.787l-2.74 4.28a10.81 10.81 0 0 0 4.95 1.634 5.844 5.844 0 0 1-.874 2.937c-1.702 2.734-5.311 3.574-8.039 1.879a5.872 5.872 0 0 1-2.506-3.255 5.853 5.853 0 0 1 .623-4.794l1.344-2.167-46.384-28.541a10.174 10.174 0 0 1 4.316-4.864l1.138-.657 44.932 27.636 1.334-2.146a5.78 5.78 0 0 1 3.758-2.629 5.788 5.788 0 0 1 4.282.752zM48.466 49.58a5.788 5.788 0 0 1 4.404.727 5.805 5.805 0 0 1 2.606 3.63 5.785 5.785 0 0 1-.725 4.403l-1.345 2.162 39.305 24.432-.013.02c-.09.127-.185.25-.277.377-.135.183-.271.365-.412.543a21.284 21.284 0 0 1-.778.916c-.081.09-.161.18-.244.269-.247.262-.5.52-.76.768l-.023.022c-.298.283-.606.556-.922.818l-.007.006c-.303.251-.614.492-.932.723l-.096.07c-.307.221-.62.433-.94.635-.01.008-.022.015-.033.022L49.614 66.72l-.148.237-.047-.029-1.343 2.159c-.18.29-.388.555-.608.802-1.874 1.901-4.88 2.33-7.237.864a5.848 5.848 0 0 1-1.882-8.041c.132-.212.28-.409.432-.598a5.867 5.867 0 0 1 3.433-1.869l-.015-.174a5.819 5.819 0 0 1 4.196.765l2.682-4.315a10.864 10.864 0 0 0-5.1-1.624 5.814 5.814 0 0 1 .859-2.715 5.798 5.798 0 0 1 3.63-2.602zm25.37 106.866c-7.243-10.696-11.239-23.434-11.239-36.515 0-11.752 3.139-23.159 9.091-33.172l9.395 5.84c-1.21.244-2.446.377-3.71.377v5.08c3.276 0 6.428-.65 9.386-1.93l.047.03 1.276-.645c4.401-2.223 8.08-5.86 10.362-10.242l1.158-2.223-.126-.068a23.812 23.812 0 0 0 1.646-8.67H96.04c0 2.103-.347 4.134-1.017 6.072l-12.202-7.585c12.142-11.654 27.847-17.891 44.798-17.891 35.856 0 65.027 29.171 65.027 65.027 0 5.532-.7 11.002-2.068 16.282-.764.453-1.472.994-2.104 1.624l-38.532-23.7 9.125-5.268c3.224-1.863 7.075-1.864 10.3-.003 3.229 1.862 5.156 5.2 5.156 8.927v9.1h5.08v-9.1c0-5.565-2.877-10.547-7.696-13.328-4.818-2.78-10.568-2.778-15.382.005l-15.264 8.81c-.499.29-.975.602-1.43.937l-8.3 4.967c-2.63 1.569-5.863 1.51-8.465-.17l-7.675-4.807a15.914 15.914 0 0 0-1.412-.927l-15.262-8.812c-4.817-2.78-10.57-2.781-15.386 0-4.818 2.782-7.693 7.763-7.693 13.326v17.622c0 5.562 2.876 10.543 7.693 13.325 2.409 1.39 5.051 2.086 7.693 2.086 2.642 0 5.285-.696 7.693-2.086l15.262-8.812c4.818-2.781 7.693-7.762 7.693-13.325 0-.909-.084-1.8-.234-2.672a13.003 13.003 0 0 0 5.993 1.476c2.207 0 4.417-.573 6.428-1.707-1.233 6.462 1.681 12.924 7.403 16.23l15.261 8.81a15.371 15.371 0 0 0 7.565 2.08l.037-5.082c-1.777-.012-3.477-.483-5.06-1.397l-15.261-8.81c-3.101-1.792-4.634-4.643-5.03-7.458l40.346 24.827a10.943 10.943 0 0 0-.197 6.176c-3.722 2.968-9.456 4.348-14.979 1.158l-18.81-10.858-2.54 4.4 18.144 10.474v8.12a24.376 24.376 0 0 0-10.756-2.497h-44.18c-3.875 0-7.652.913-11.067 2.65v-8.753l17.75-10.247-2.54-4.4-18.81 10.858c-6.676 3.853-13.79 1.087-17.3-3.536zm24.4-16.579a9.946 9.946 0 0 0 3.547 1.236l-5.606 3.236c-3.227 1.863-7.08 1.863-10.305 0-3.226-1.862-5.153-5.199-5.153-8.924v-17.622c0-3.726 1.926-7.063 5.152-8.925a10.285 10.285 0 0 1 5.153-1.397c1.77 0 3.54.465 5.153 1.397l5.606 3.236a9.931 9.931 0 0 0-3.546 1.236c-3.092 1.785-4.938 4.981-4.938 8.55v9.426c.001 3.57 1.847 6.767 4.938 8.551zm2.542-4.4a4.746 4.746 0 0 1-2.397-4.151v-9.426c0-1.733.896-3.285 2.397-4.151a4.785 4.785 0 0 1 2.396-.65c.823 0 1.647.217 2.397.65l8.163 4.713a4.745 4.745 0 0 1 2.397 4.151 4.745 4.745 0 0 1-2.397 4.151l-8.163 4.714a4.75 4.75 0 0 1-4.793 0zm-2.245 70.756c-1.75-7.307-3.523-13.722-5.276-19.064-3.3-10.065-6.53-16.465-9.872-19.565-.294-.273-.583-.553-.872-.832.643.069 1.29.109 1.94.109 1.739 0 3.488-.259 5.2-.768v9.483l.796.752c1.92 1.816 5.828 8.129 10.814 29.95-.918-.02-1.824-.042-2.73-.065zm43.832.28c-8.852.105-18.908.11-28.916-.006-2.336-.028-4.654-.063-6.954-.104-3.136-13.984-6.23-23.69-9.373-29.373a19.293 19.293 0 0 1 8.68-2.066h44.18c2.908 0 5.748.656 8.35 1.903-3.052 5.576-6.09 15.087-9.487 29.55-2.177.037-4.343.07-6.48.095zm14.509-.263l-2.789.065c1.964-8.316 6.362-25.807 10.95-30.201l.784-.75v-8.892a18.36 18.36 0 0 0 6.68.521c-.118.111-.234.226-.352.337-3.344 3.146-6.594 9.65-9.936 19.88-1.726 5.27-3.475 11.509-5.337 19.04zm55.511-3.147c-2.164.224-4.465.442-6.879.652l11.664-41.171-2.443-.694a5.07 5.07 0 0 1-3.058-2.419 5.037 5.037 0 0 1-.45-3.864 5.06 5.06 0 0 1 2.415-3.059 5.05 5.05 0 0 1 3.867-.452 5.07 5.07 0 0 1 3.217 2.732c.521 1.11.624 2.37.288 3.548l4.889 1.389c.428-1.508.495-3.082.218-4.601a5.082 5.082 0 0 1 2.467.065 5.096 5.096 0 0 1 3.509 6.283 5.065 5.065 0 0 1-2.422 3.064 5.033 5.033 0 0 1-3.854.448l-2.447-.697-10.981 38.776zm5.453-.608l2.06-7.277c10.63 1.366 15.368 2.687 17.447 3.511-2.208.875-7.417 2.308-19.507 3.766z" fill="#fff" fill-rule="nonzero"/></svg>
